<?xml version="1.0" encoding="utf-8"?>
<!-- Generator: Adobe Illustrator 18.1.0, SVG Export Plug-In . SVG Version: 6.00 Build 0)  -->
<svg version="1.1" id="Layer_1" xmlns="http://www.w3.org/2000/svg" xmlns:xlink="http://www.w3.org/1999/xlink" x="0px" y="0px"
	 viewBox="0 0 78 50" enable-background="new 0 0 78 50" xml:space="preserve">
<g>
	<path fill="#FFFFFF" d="M70.3,35.8c-0.2-4.3-0.9-8.5-2.2-12.7c-1.5-4.7-3.3-9.2-6.1-13.2c-1.9-2.7-4.1-5.2-7.3-6.5
		c-1.1-0.4-2.3-0.8-3.5-0.8c-3.6-0.1-7.2,0-10.8,0c-0.4,0-0.8,0-1.3,0c0,0-0.1,0-0.1,0c-0.5,0-0.9,0-1.3,0c-3.6,0-7.2-0.1-10.8,0
		c-1.2,0-2.4,0.3-3.5,0.8c-3.2,1.3-5.4,3.8-7.3,6.5c-2.8,4-4.7,8.5-6.1,13.2c-1.3,4.2-2,8.4-2.2,12.7c-0.1,2.5,0.2,5,0.9,7.4
		c0.9,3.1,2.9,4.9,6.2,4.1c1.5-0.4,3.1-1.1,4.3-2.2c1.8-1.7,3.5-3.6,5-5.6c3.2-4.2,7-7.4,12.5-8.3c0.9-0.1,1.7-0.2,2.5-0.2
		c0.8,0,1.7,0.1,2.5,0.2c5.5,0.9,9.2,4.1,12.5,8.3c1.5,2,3.1,3.9,5,5.6c1.2,1,2.7,1.8,4.3,2.2c3.3,0.8,5.3-1.1,6.2-4.1
		C70.1,40.8,70.5,38.2,70.3,35.8z"/>
	<circle cx="27" cy="16.5" r="7.4"/>
	<circle fill="#FFFFFF" cx="27" cy="16.5" r="3.8"/>
	<circle cx="51.2" cy="11.9" r="2.8"/>
	<circle cx="45.6" cy="17.6" r="2.8"/>
	<circle cx="56.9" cy="17.6" r="2.8"/>
	<circle cx="51.2" cy="23.2" r="2.8"/>
</g>
</svg>
