<?xml version="1.0" encoding="utf-8"?>
<!-- Generator: Adobe Illustrator 18.1.0, SVG Export Plug-In . SVG Version: 6.00 Build 0)  -->
<svg version="1.1" id="Layer_1" xmlns="http://www.w3.org/2000/svg" xmlns:xlink="http://www.w3.org/1999/xlink" x="0px" y="0px"
	 viewBox="0 0 81.8 50" enable-background="new 0 0 81.8 50" xml:space="preserve">
<g>
	<path fill="#FFFFFF" d="M80.4,24.1c-0.1-0.2-3.4-5.5-10-10.8c-6-4.9-16.1-10.8-29.6-10.8c-13.6,0-23.6,5.9-29.6,10.8
		c-6.5,5.3-9.8,10.6-9.9,10.8L0.8,25l0.5,0.9c0.1,0.2,3.4,5.5,10,10.8c6,4.9,16.1,10.8,29.6,10.8c13.6,0,23.6-5.9,29.6-10.8
		c6.5-5.3,9.8-10.6,9.9-10.8L81,25L80.4,24.1z M40.9,39.9C32.7,39.9,26,33.2,26,25s6.7-14.9,14.9-14.9c8.2,0,14.9,6.7,14.9,14.9
		S49.1,39.9,40.9,39.9z M13.5,34.2c-4.6-3.8-7.6-7.5-8.7-9.2c1.2-1.7,4.1-5.5,8.7-9.2c3.6-2.9,7.4-5.2,11.5-6.9
		c2.7-1.1,5.5-1.9,8.4-2.4C26,9.5,20.9,16.7,20.9,25c0,8.3,5.1,15.5,12.3,18.5c-2.8-0.5-5.6-1.3-8.2-2.4
		C20.9,39.4,17,37.1,13.5,34.2z M68.3,34.2c-3.6,2.9-7.4,5.2-11.5,6.9c-2.7,1.1-5.5,1.9-8.4,2.4c7.3-3,12.4-10.2,12.4-18.5
		c0-8.3-5.1-15.5-12.3-18.5c2.8,0.5,5.6,1.3,8.2,2.4c4.1,1.7,7.9,4,11.5,6.9c4.6,3.8,7.6,7.5,8.7,9.2C75.8,26.7,72.9,30.5,68.3,34.2
		z"/>
	<g>
		<circle fill="#FFFFFF" cx="35.3" cy="20.1" r="3.4"/>
	</g>
</g>
</svg>
