<?xml version="1.0" encoding="utf-8"?>
<!-- Generator: Adobe Illustrator 18.1.0, SVG Export Plug-In . SVG Version: 6.00 Build 0)  -->
<svg version="1.1" id="Layer_1" xmlns="http://www.w3.org/2000/svg" xmlns:xlink="http://www.w3.org/1999/xlink" x="0px" y="0px"
	 viewBox="0 0 49.2 50" enable-background="new 0 0 49.2 50" xml:space="preserve">
<g>
	<path fill="#FFFFFF" d="M24.6,47.5C12.2,47.5,2.1,37.4,2.1,25S12.2,2.5,24.6,2.5C37,2.5,47.1,12.6,47.1,25S37,47.5,24.6,47.5z"/>
	<path d="M24.6,43.5C14.4,43.5,6.1,35.2,6.1,25S14.4,6.5,24.6,6.5S43.1,14.8,43.1,25S34.8,43.5,24.6,43.5z"/>
	<path fill="#FFFFFF" d="M24.6,39.5c-8,0-14.5-6.5-14.5-14.5s6.5-14.5,14.5-14.5S39.1,17,39.1,25S32.6,39.5,24.6,39.5z"/>
	<path d="M24.6,35.4c-5.8,0-10.4-4.7-10.4-10.4s4.7-10.4,10.4-10.4S35,19.2,35,25S30.4,35.4,24.6,35.4z"/>
	<circle fill="#FFFFFF" cx="24.6" cy="25" r="6.4"/>
</g>
</svg>
