<?xml version="1.0" encoding="utf-8"?>
<!-- Generator: Adobe Illustrator 18.1.0, SVG Export Plug-In . SVG Version: 6.00 Build 0)  -->
<svg version="1.1" id="Layer_1" xmlns="http://www.w3.org/2000/svg" xmlns:xlink="http://www.w3.org/1999/xlink" x="0px" y="0px"
	 viewBox="0 0 58 50" enable-background="new 0 0 58 50" xml:space="preserve">
<path fill="#FFFFFF" d="M55.3,7.4c-1.9,0.9-4,1.5-6.2,1.8c2.2-1.4,3.9-3.7,4.8-6.4c-2.1,1.3-4.4,2.3-6.9,2.8C45,3.4,42.2,2,39.1,2
	c-6,0-10.8,5.2-10.8,11.6c0,0.9,0.1,1.8,0.3,2.6c-8.9-0.5-16.9-5.1-22.2-12.1C5.4,5.8,4.9,7.8,4.9,10c0,4,1.9,7.6,4.8,9.6
	c-1.8-0.1-3.4-0.6-4.9-1.4c0,0,0,0.1,0,0.2c0,5.6,3.7,10.3,8.7,11.4c-0.9,0.3-1.9,0.4-2.8,0.4c-0.7,0-1.4,0-2-0.2
	c1.4,4.6,5.4,8,10.1,8.1c-3.7,3.1-8.3,5-13.4,5c-0.9,0-1.7-0.1-2.6-0.2C7.5,46.1,13.1,48,19.2,48c19.8,0,30.7-17.7,30.7-33
	c0-0.5,0-1,0-1.5C52,11.8,53.8,9.8,55.3,7.4z"/>
</svg>
