<?xml version="1.0" encoding="utf-8"?>
<!-- Generator: Adobe Illustrator 18.1.0, SVG Export Plug-In . SVG Version: 6.00 Build 0)  -->
<svg version="1.1" id="Layer_2" xmlns="http://www.w3.org/2000/svg" xmlns:xlink="http://www.w3.org/1999/xlink" x="0px" y="0px"
	 viewBox="0 0 127.4 37.5" enable-background="new 0 0 127.4 37.5" xml:space="preserve">
<g>
	<rect x="0" y="0" fill="#272425" width="127.4" height="37.5"/>
	<path fill="#FFFFFF" d="M17.9,23.8c0,1.4-0.5,2.2-1.7,2.2c-1,0-1.6-0.6-1.6-2.2V15h-2.7V24c0,2.4,1.4,3.9,4.4,3.9
		c3.3,0,4.3-2,4.3-3.9V15h-2.7V23.8z M29.6,21.5L29.6,21.5c1.7-0.3,2.4-1.5,2.4-3.2c0-2.2-1.2-3.3-3-3.3H24v12.8h2.7v-5.3h0.7
		c2.1,0,1.9,1.3,1.9,2.8c0,0.8-0.1,1.7,0.3,2.5h2.6c-0.2-0.5-0.3-2.9-0.3-3.8C31.9,21.7,30.1,21.5,29.6,21.5z M27.9,20.5h-1.2v-3.6
		h1.2c0.8,0,1.4,0.5,1.4,1.7C29.2,19.4,28.9,20.5,27.9,20.5z M41.5,21.1L41.5,21.1c1.5-0.3,2.2-1.4,2.2-2.8c0-2.7-1.7-3.3-3.7-3.3
		h-4.7v12.8H40c1.1,0,3.9-0.1,3.9-3.4C43.9,22.6,43.4,21.4,41.5,21.1z M37.9,16.9h1.6c0.9,0,1.5,0.7,1.5,1.6c0,1.2-0.8,1.6-1.4,1.6
		h-1.8V16.9z M39.4,25.8h-1.5v-3.6h1.6c1.3,0,1.8,0.7,1.8,1.8C41.3,25.7,40,25.8,39.4,25.8z M49.4,15l-3.5,12.8h2.6l0.7-2.8h3.6
		l0.7,2.8h2.8L53,15H49.4z M49.8,22.9l1.2-5.5h0l1.3,5.5H49.8z M65.7,23.8L65.7,23.8L62.3,15h-3.6v12.8h2.5v-9.3h0l3.5,9.3h3.5V15
		h-2.5V23.8z M74.5,22h4v-2h-4v-3.1h4.3v-2h-7v12.8h7.1v-2h-4.4V22z M84.6,15L81,27.7h2.6l0.7-2.8H88l0.7,2.8h2.8L88.1,15H84.6z
		 M84.9,22.9l1.2-5.5h0l1.3,5.5H84.9z M99.5,21.5L99.5,21.5c1.7-0.3,2.4-1.5,2.4-3.2c0-2.2-1.2-3.3-3-3.3h-4.9v12.8h2.7v-5.3h0.7
		c2.1,0,1.9,1.3,1.9,2.8c0,0.8-0.1,1.7,0.3,2.5h2.6c-0.2-0.5-0.3-2.9-0.3-3.8C101.8,21.7,100.1,21.5,99.5,21.5z M97.8,20.5h-1.2
		v-3.6h1.2c0.8,0,1.4,0.5,1.4,1.7C99.2,19.4,98.9,20.5,97.8,20.5z M107.7,18c0-0.9,0.5-1.4,1.4-1.4c1.1,0,1.2,1,1.2,1.9h2.6
		c0.2-2.7-1.1-3.8-3.7-3.8c-3.3,0-4.2,1.6-4.2,3.6c0,3.8,5.4,3.9,5.4,6.2c0,0.9-0.4,1.5-1.3,1.5c-1.5,0-1.5-1-1.5-2.2h-2.7
		c-0.1,2.2,0.5,4.2,3.8,4.2c2,0,4.5-0.4,4.5-3.7C113.1,20.2,107.7,20.4,107.7,18z M114.1,15.2h0.6V17h0.3v-1.8h0.6V15h-1.5V15.2z
		 M117.4,15l-0.6,1.6l-0.6-1.6h-0.3v2h0.3l0-1.7l0.6,1.7h0.2l0.6-1.7l0,1.7h0.3v-2H117.4z"/>
</g>
</svg>
